<svg width="108" height="79" viewBox="0 0 108 79" fill="none" xmlns="http://www.w3.org/2000/svg">
<circle cx="34" cy="36" r="25" stroke="#ECB7CE" stroke-width="14"/>
<path d="M16.416 33.032H12V53H3.792V33.032H0.816V26.216H3.792V25.448C3.792 22.152 4.736 19.656 6.624 17.96C8.512 16.232 11.28 15.368 14.928 15.368C15.536 15.368 15.984 15.384 16.272 15.416V22.376C14.704 22.28 13.6 22.504 12.96 23.048C12.32 23.592 12 24.568 12 25.976V26.216H16.416V33.032Z" fill="#73314F"/>
<path d="M47.594 36.664C47.594 35.416 47.864 34.306 48.404 33.334C48.944 32.35 49.694 31.588 50.654 31.048C51.626 30.496 52.724 30.22 53.948 30.22C55.448 30.22 56.732 30.616 57.8 31.408C58.868 32.2 59.582 33.28 59.942 34.648H56.558C56.306 34.12 55.946 33.718 55.478 33.442C55.022 33.166 54.5 33.028 53.912 33.028C52.964 33.028 52.196 33.358 51.608 34.018C51.02 34.678 50.726 35.56 50.726 36.664C50.726 37.768 51.02 38.65 51.608 39.31C52.196 39.97 52.964 40.3 53.912 40.3C54.5 40.3 55.022 40.162 55.478 39.886C55.946 39.61 56.306 39.208 56.558 38.68H59.942C59.582 40.048 58.868 41.128 57.8 41.92C56.732 42.7 55.448 43.09 53.948 43.09C52.724 43.09 51.626 42.82 50.654 42.28C49.694 41.728 48.944 40.966 48.404 39.994C47.864 39.022 47.594 37.912 47.594 36.664ZM64.8509 30.364V37.924C64.8509 38.68 65.0369 39.262 65.4089 39.67C65.7809 40.078 66.3269 40.282 67.0469 40.282C67.7669 40.282 68.3189 40.078 68.7029 39.67C69.0869 39.262 69.2789 38.68 69.2789 37.924V30.364H72.3569V37.906C72.3569 39.034 72.1169 39.988 71.6369 40.768C71.1569 41.548 70.5089 42.136 69.6929 42.532C68.8889 42.928 67.9889 43.126 66.9929 43.126C65.9969 43.126 65.1029 42.934 64.3109 42.55C63.5309 42.154 62.9129 41.566 62.4569 40.786C62.0009 39.994 61.7729 39.034 61.7729 37.906V30.364H64.8509ZM79.0903 43.126C78.1663 43.126 77.3383 42.976 76.6063 42.676C75.8743 42.376 75.2863 41.932 74.8423 41.344C74.4103 40.756 74.1823 40.048 74.1583 39.22H77.4343C77.4823 39.688 77.6443 40.048 77.9203 40.3C78.1963 40.54 78.5563 40.66 79.0003 40.66C79.4563 40.66 79.8163 40.558 80.0803 40.354C80.3443 40.138 80.4763 39.844 80.4763 39.472C80.4763 39.16 80.3683 38.902 80.1523 38.698C79.9483 38.494 79.6903 38.326 79.3783 38.194C79.0783 38.062 78.6463 37.912 78.0823 37.744C77.2663 37.492 76.6003 37.24 76.0843 36.988C75.5683 36.736 75.1243 36.364 74.7523 35.872C74.3803 35.38 74.1943 34.738 74.1943 33.946C74.1943 32.77 74.6203 31.852 75.4723 31.192C76.3243 30.52 77.4343 30.184 78.8023 30.184C80.1943 30.184 81.3163 30.52 82.1683 31.192C83.0203 31.852 83.4763 32.776 83.5363 33.964H80.2063C80.1823 33.556 80.0323 33.238 79.7563 33.01C79.4803 32.77 79.1263 32.65 78.6943 32.65C78.3223 32.65 78.0223 32.752 77.7943 32.956C77.5663 33.148 77.4523 33.43 77.4523 33.802C77.4523 34.21 77.6443 34.528 78.0283 34.756C78.4123 34.984 79.0123 35.23 79.8283 35.494C80.6443 35.77 81.3043 36.034 81.8083 36.286C82.3243 36.538 82.7683 36.904 83.1403 37.384C83.5123 37.864 83.6983 38.482 83.6983 39.238C83.6983 39.958 83.5123 40.612 83.1403 41.2C82.7803 41.788 82.2523 42.256 81.5563 42.604C80.8603 42.952 80.0383 43.126 79.0903 43.126ZM88.6706 32.83V35.386H92.7926V37.762H88.6706V40.534H93.3326V43H85.5926V30.364H93.3326V32.83H88.6706ZM100.065 30.364C101.397 30.364 102.561 30.628 103.557 31.156C104.553 31.684 105.321 32.428 105.861 33.388C106.413 34.336 106.689 35.434 106.689 36.682C106.689 37.918 106.413 39.016 105.861 39.976C105.321 40.936 104.547 41.68 103.539 42.208C102.543 42.736 101.385 43 100.065 43H95.3308V30.364H100.065ZM99.8668 40.336C101.031 40.336 101.937 40.018 102.585 39.382C103.233 38.746 103.557 37.846 103.557 36.682C103.557 35.518 103.233 34.612 102.585 33.964C101.937 33.316 101.031 32.992 99.8668 32.992H98.4088V40.336H99.8668Z" fill="#73314F"/>
</svg>
